<?xml version="1.0" encoding="UTF-8"?>
<svg id="OBJECTS" xmlns="http://www.w3.org/2000/svg" viewBox="0 0 137.31 137.31">
  <defs>
    <style>
      .cls-1 {
        fill: #fff;
      }

      .cls-2 {
        fill-rule: evenodd;
      }

      .cls-2, .cls-3 {
        fill: #ac80e0;
      }
    </style>
  </defs>
  <rect class="cls-1" x="16.34" y="19.53" width="104.63" height="98.25" rx="12" ry="12"/>
  <g>
    <g>
      <path class="cls-3" d="M48.03,77.92l-.62-.46c-.62-.46-15.29-11.44-15.29-24.63,0-8.78,7.14-15.92,15.91-15.92s15.92,7.14,15.92,15.92c0,13.19-14.67,24.17-15.29,24.63l-.62.46ZM48.03,39.01c-7.62,0-13.82,6.2-13.82,13.82,0,10.67,11.06,20.23,13.82,22.46,2.77-2.23,13.82-11.79,13.82-22.46,0-7.62-6.2-13.82-13.82-13.82Z"/>
      <path class="cls-3" d="M89.28,77.92l-.62-.46c-.62-.46-15.29-11.44-15.29-24.63,0-8.78,7.14-15.92,15.92-15.92s15.92,7.14,15.92,15.92c0,13.19-14.67,24.17-15.29,24.63l-.62.46ZM89.28,39.01c-7.62,0-13.82,6.2-13.82,13.82,0,10.67,11.06,20.23,13.82,22.46,2.77-2.23,13.82-11.79,13.82-22.46,0-7.62-6.2-13.82-13.82-13.82Z"/>
      <path class="cls-3" d="M92.25,82.32c-.75-.63-1.72-1.06-2.75-1.16-1.02-.09-2.07.11-2.92.58-.45.2-.81.52-1.19.79-.33.34-.66.66-.95,1.01-.07.09-.1.22-.05.33.07.18.26.27.44.2l.04-.02c.42-.16.78-.37,1.16-.53.39-.13.75-.32,1.13-.42.47-.16.93-.22,1.39-.25-.31,4.91-2.51,9.54-6.33,12.37-3.8,2.9-8.7,4.2-13.56,4.19-4.85,0-9.75-1.3-13.56-4.19-3.82-2.83-6.02-7.46-6.33-12.37.46.03.92.09,1.39.25.38.09.73.29,1.13.42.38.16.74.38,1.16.53l.04.02c.11.04.24.02.33-.05.15-.12.17-.33.05-.48-.29-.36-.62-.68-.95-1.01-.39-.27-.75-.59-1.19-.79-.85-.47-1.9-.67-2.92-.58-1.03.1-2,.53-2.75,1.16-.76.62-1.33,1.39-1.69,2.28-.05.12-.03.25.06.35.12.14.34.15.48.03l.03-.03c1.04-.93,2.18-1.69,3.36-1.98-.12,2.58.3,5.22,1.29,7.69,1.05,2.54,2.76,4.81,4.86,6.59,4.24,3.6,9.84,5.1,15.2,5.13,5.37-.03,10.96-1.53,15.2-5.13,2.1-1.78,3.81-4.05,4.86-6.59.99-2.47,1.41-5.11,1.29-7.69,1.18.28,2.32,1.04,3.36,1.97l.03.03c.09.08.23.11.35.06.17-.07.26-.27.19-.44-.36-.89-.93-1.66-1.69-2.28Z"/>
    </g>
    <path class="cls-2" d="M48.03,60.08c-3.91,0-7.07-3.17-7.07-7.07s3.17-7.07,7.07-7.07,7.07,3.17,7.07,7.07-3.17,7.07-7.07,7.07Z"/>
    <path class="cls-2" d="M89.28,60.08c-3.91,0-7.07-3.17-7.07-7.07s3.17-7.07,7.07-7.07,7.07,3.17,7.07,7.07-3.17,7.07-7.07,7.07Z"/>
  </g>
</svg>